<?xml version="1.0" encoding="UTF-8" standalone="no"?>
<svg
   xmlns:dc="http://purl.org/dc/elements/1.1/"
   xmlns:cc="http://creativecommons.org/ns#"
   xmlns:rdf="http://www.w3.org/1999/02/22-rdf-syntax-ns#"
   xmlns:svg="http://www.w3.org/2000/svg"
   xmlns="http://www.w3.org/2000/svg"
   xmlns:sodipodi="http://sodipodi.sourceforge.net/DTD/sodipodi-0.dtd"
   xmlns:inkscape="http://www.inkscape.org/namespaces/inkscape"
   version="1.1"
   viewBox="0 0 462.987 462.987"
   enable-background="new 0 0 462.987 462.987"
   id="svg3686"
   sodipodi:docname="001-animals-1.svg"
   inkscape:version="0.92.1 r15371">
  <metadata
     id="metadata3692">
    <rdf:RDF>
      <cc:Work
         rdf:about="">
        <dc:format>image/svg+xml</dc:format>
        <dc:type
           rdf:resource="http://purl.org/dc/dcmitype/StillImage" />
      </cc:Work>
    </rdf:RDF>
  </metadata>
  <defs
     id="defs3690" />
  <sodipodi:namedview
     pagecolor="#ffffff"
     bordercolor="#666666"
     borderopacity="1"
     objecttolerance="10"
     gridtolerance="10"
     guidetolerance="10"
     inkscape:pageopacity="0"
     inkscape:pageshadow="2"
     inkscape:window-width="1920"
     inkscape:window-height="1017"
     id="namedview3688"
     showgrid="false"
     inkscape:zoom="1.2737443"
     inkscape:cx="278.29124"
     inkscape:cy="278.52883"
     inkscape:window-x="1912"
     inkscape:window-y="-8"
     inkscape:window-maximized="1"
     inkscape:current-layer="svg3686" />
  <g
     id="g3684"
     style="stroke-width:7.1;stroke-miterlimit:4;stroke-dasharray:none">
    <path
       d="m451.59,173.117l-24.762-12.381c-0.055-0.027-0.112-0.047-0.167-0.073-4.478-15.155-12.366-29.156-23.132-40.842 9.753-4.922 18.072-10.026 24.562-15.151 3.251-2.567 3.805-7.283 1.238-10.534-2.568-3.251-7.283-3.804-10.534-1.238-6.592,5.205-15.562,10.486-26.258,15.585-2.633-16.923-7.132-54.375-5.454-93.8 0.16-3.759-1.211-7.336-3.86-10.073-2.878-2.973-7.001-4.635-11.441-4.61-16.863,0.168-44.699,2.195-81.552,10.901-36.854,8.707-62.655,19.35-77.81,26.746-3.948,1.926-6.926,5.295-8.169,9.243-1.145,3.633-0.77,7.446 1.056,10.736 19.143,34.505 31.879,70.012 37.098,86.325-11.847,0.226-22.232-0.482-30.457-2.187-4.055-0.841-8.025,1.765-8.866,5.821-0.841,4.056 1.766,8.025 5.821,8.866 8.285,1.718 18.267,2.559 29.502,2.559 0.399,0 0.813-0.01 1.215-0.012-1.492,10.915-6.891,25.217-13.378,35.379-5.6-4.942-11.542-9.8-17.858-14.475-24.163-17.887-50.146-30.481-77.229-37.433-32.213-8.27-66.272-8.609-101.228-1.01-3.411,0.741-5.871,3.735-5.981,7.28-0.167,5.35 9.728,26.934 25.022,47.275 9.951,13.234 24.532,29.111 43.829,41.273h-13.275c-2.531,0-4.892,1.277-6.277,3.395s-1.609,4.792-0.594,7.111c0.767,1.754 16.083,35.78 51.903,48.092-24.178,10.562-50.52,16.101-77.11,16.101-11.171,0-22.448-0.991-33.517-2.946-4.274-0.754-8.613,0.872-11.321,4.248-2.661,3.316-3.303,7.815-1.675,11.742 17.091,41.214 45.834,76.079 83.124,100.824 36.692,24.349 79.234,37.133 123.379,37.132 1.908,0 3.822-0.024 5.736-0.072 94.983-2.378 178.216-69.264 200.254-159.949 0.943,0.087 1.909,0.087 2.903-0.032 3.012-0.357 5.512-2.494 6.335-5.414 5.495-19.499 8.281-40.548 8.281-62.564v-14.777l20.647-10.323c7.003-3.501 11.353-10.54 11.353-18.369 0-7.829-4.35-14.868-11.353-18.369zm-232.591-121.989c14.469-7.061 39.17-17.239 74.68-25.628 35.508-8.388 62.153-10.34 78.253-10.5 0.043,0.001 0.087,0.001 0.126,0.003-1.003,25.046 0.447,50.072 2.385,69.67-17.967,7.47-38.926,14.122-60.957,19.326-23.043,5.443-45.66,8.939-65.707,10.167-7.028-18.33-16.87-41.182-28.891-62.979 0.034-0.02 0.072-0.04 0.111-0.059zm34.167,77.701c19.747-1.496 41.597-4.994 63.769-10.232 21.195-5.007 41.479-11.33 59.26-18.442 0.757,5.898 1.503,10.849 2.141,14.579-17.324,7.061-37.686,13.519-59.183,18.597-21.499,5.079-42.599,8.416-61.252,9.854-1.122-3.698-2.711-8.579-4.735-14.356zm-160.7,123.459h35.056c3.743,0 6.913-2.76 7.429-6.467 0.515-3.707-1.782-7.227-5.382-8.248-31.208-8.85-53.673-31.257-67.023-48.496-10.679-13.788-17.681-26.911-21.158-34.605 144.185-25.973 222.08,101.684 236.445,127.983 1.453,2.661 2.19,5.614 2.19,8.779 0,7.902-4.906,14.93-12.208,17.486-24.604,8.614-71.831,20.035-120.724,4.235l10.672-16.008c1.535-2.301 1.677-5.26 0.373-7.699-1.305-2.438-3.847-3.961-6.613-3.961-31.454,0.001-50.243-20.106-59.057-32.999zm120.329,195.632c-43.114,1.083-84.747-10.873-120.447-34.564-33.133-21.987-59.035-52.533-75.201-88.6 10.044,1.481 20.209,2.23 30.296,2.23 29.035,0 57.797-6.138 84.145-17.82l-2.307,3.461c-1.259,1.889-1.595,4.246-0.914,6.412 0.682,2.166 2.307,3.906 4.421,4.733 22.675,8.873 45.188,12.059 65.831,12.059 30.764,0 57.371-7.077 74.152-12.953 13.309-4.66 22.25-17.376 22.25-31.644 0-2.696-0.328-5.365-0.951-7.947 2.33-0.983 5.504-2.272 6.903-2.335 1.257,1.018 3.352,4.807 4.629,7.12 3.384,6.125 7.22,13.068 14.558,14.508 7.208,1.416 13.361-3.463 18.784-7.769 2.095-1.664 5.523-4.385 7.111-4.851 1.4,0.744 4.162,3.764 5.853,5.614 4.679,5.119 9.975,10.912 17.356,10.912 0.082,0 0.166,0 0.249-0.002 7.046-0.125 12.051-5.858 16.466-10.916 1.779-2.038 4.674-5.355 6.212-6.15 1.398,0.646 4.145,3.122 5.842,4.651 0.551,0.497 1.12,1.009 1.703,1.522-19.004,86.13-97.34,150.086-186.941,152.329zm203.148-212.964c0,17.476-1.861,34.263-5.541,50.031-0.843-0.724-1.659-1.459-2.326-2.061-4.738-4.27-10.11-9.104-16.937-8.566-7.047,0.561-12.048,6.29-16.46,11.344-1.578,1.808-4.113,4.712-5.533,5.634-1.559-0.843-4.405-3.956-6.167-5.884-4.297-4.7-9.167-10.026-15.749-10.51-6.764-0.5-12.527,4.082-17.613,8.121-1.895,1.504-4.923,3.909-6.544,4.595-1.253-1.253-3.153-4.692-4.34-6.841-3.09-5.594-6.593-11.934-12.875-14.106-5.986-2.069-12.102,0.416-18.032,2.93-8.609-14.823-25.251-40.149-50.46-64.908 8.89-12.936 15.992-31.865 17.408-46.274 20.435-1.283 43.73-4.839 67.828-10.531 24.586-5.808 47.434-13.229 66.515-21.418 17.089,16.6 26.827,39.625 26.827,63.748v44.696zm28.938-38.516l-13.939,6.969v-13.149c0-3.688-0.195-7.355-0.579-10.986l14.518,7.259c2.763,1.382 3.061,3.924 3.061,4.954 5.68434e-14,1.028-0.298,3.571-3.061,4.953z"
       id="path3680"
       style="stroke-width:7.1;stroke-miterlimit:4;stroke-dasharray:none" />
    <path
       d="m375.443,167.987c-4.142,0-7.5,3.358-7.5,7.5v8c0,4.142 3.358,7.5 7.5,7.5s7.5-3.358 7.5-7.5v-8c0-4.142-3.357-7.5-7.5-7.5z"
       id="path3682"
       style="stroke-width:7.1;stroke-miterlimit:4;stroke-dasharray:none" />
  </g>
  <ellipse
     id="path3694"
     cx="375.27155"
     cy="179.57062"
     rx="29.445581"
     ry="28.660496"
     style="fill:none;stroke:#000000;stroke-width:6.79474783;stroke-miterlimit:4;stroke-dasharray:none" />
  <rect
     style="fill:none;stroke:#000000;stroke-width:5.23959351;stroke-miterlimit:4;stroke-dasharray:none;stroke-linecap:round;stroke-linejoin:round"
     id="rect4501"
     width="63.374493"
     height="1.4462665"
     x="279.15585"
     y="174.62764" />
  <path
     style="fill:none;stroke:#000000;stroke-width:6.63999987;stroke-linecap:round;stroke-linejoin:round;stroke-miterlimit:4;stroke-dasharray:none;stroke-opacity:1"
     d="m 281.47887,175.35524 c -15.95546,-0.625 -15.95546,13.89911 -15.95546,13.89911"
     id="path4525"
     inkscape:connector-curvature="0" />
  <path
     style="fill:none;stroke:#000000;stroke-width:8.19999981;stroke-linecap:butt;stroke-linejoin:miter;stroke-miterlimit:4;stroke-dasharray:none;stroke-opacity:1"
     d="m 402.55333,168.97194 c 2.15898,-10.00986 12.75766,-11.18749 12.75766,-11.18749"
     id="path4544"
     inkscape:connector-curvature="0" />
  <path
     style="fill:#4d4d4d;stroke:#000000;stroke-width:1;stroke-linecap:round;stroke-linejoin:round;stroke-miterlimit:4;stroke-dasharray:none;paint-order:normal"
     d="M 246.5047,110.32739 C 239.41401,92.270195 230.24097,72.117073 222.2026,56.935847 l -2.96228,-5.594556 2.743,-1.381356 c 1.50866,-0.759746 5.82254,-2.69381 9.5864,-4.29792 39.21681,-16.713674 91.8748,-28.675828 133.2814,-30.277121 l 6.86951,-0.265661 0.0193,17.621162 c 0.0106,9.691639 0.23693,21.242375 0.50296,25.668303 0.53043,8.824636 1.49962,21.541234 1.85731,24.369463 l 0.22742,1.79821 -5.76751,2.239759 c -21.67167,8.416002 -45.6498,15.31509 -70.44135,20.26768 -16.47267,3.29073 -33.1931,5.69479 -45.1425,6.49058 -2.05104,0.13659 -4.00762,0.32412 -4.34795,0.41673 -0.46799,0.12735 -0.98551,-0.76551 -2.12358,-3.66373 z"
     id="path4548"
     inkscape:connector-curvature="0" />
  <path
     style="fill:#ff2a2a;stroke:#000000;stroke-width:1;stroke-linecap:round;stroke-linejoin:round;stroke-miterlimit:4;stroke-dasharray:none;paint-order:normal"
     d="m 257.87084,142.31486 c -0.1011,-0.26987 -1.13982,-3.35267 -2.30826,-6.85066 l -2.12445,-6.35998 1.63363,-0.20102 c 0.8985,-0.11056 5.0782,-0.56531 9.28823,-1.01054 28.09295,-2.971 60.48477,-10.00896 89.41981,-19.42875 5.3691,-1.74791 18.18951,-6.37283 21.68889,-7.8242 0.5152,-0.21368 0.75348,0.78053 1.56527,6.53092 0.52665,3.73063 0.95976,6.95173 0.96246,7.158 0.006,0.4766 -10.66431,4.56714 -20.60363,7.89837 -28.47922,9.54501 -60.26804,16.5904 -89.30364,19.79245 -8.27965,0.91308 -9.96863,0.96191 -10.21831,0.29541 z"
     id="path4550"
     inkscape:connector-curvature="0" />
  <path
     style="fill:#ff7f2a;stroke:#000000;stroke-width:4.55215025;stroke-linecap:round;stroke-linejoin:round;stroke-miterlimit:4;stroke-dasharray:none;paint-order:normal"
     d="m 431.01295,192.29571 c 0,-5.93939 -0.15879,-11.21268 -0.35286,-11.71843 -0.49623,-1.29316 14.99975,6.53703 16.12986,8.15049 0.48247,0.68882 0.87721,1.80958 0.87721,2.4906 0,2.99289 -1.13406,4.00118 -8.97532,7.9799 l -7.67889,3.89633 z"
     id="path4570"
     inkscape:connector-curvature="0" />
  <path
     style="fill:#5fbcd3;stroke:#000000;stroke-width:6.43771267;stroke-linecap:round;stroke-linejoin:round;stroke-miterlimit:4;stroke-dasharray:none;paint-order:normal"
     d="M 181.32348,446.0329 C 148.45832,441.50136 119.2374,430.55357 92.425961,412.72693 62.733863,392.98497 38.344044,365.66467 22.020432,333.86205 c -2.197737,-4.28176 -3.84279,-7.93811 -3.655675,-8.12523 0.187115,-0.18711 3.9107,0.0482 8.274631,0.52296 9.904133,1.07746 31.874541,1.10817 41.239036,0.0576 21.677099,-2.43176 40.579486,-7.23192 60.391716,-15.33614 1.27745,-0.52254 1.40912,-0.38499 0.8543,0.89246 -1.15681,2.66353 -1.363,7.17247 -0.40947,8.95415 1.19345,2.22999 7.10973,4.81741 18.64733,8.1552 35.89373,10.38396 78.80108,9.13338 118.35803,-3.44965 14.85601,-4.72568 21.6758,-9.92056 26.54144,-20.21759 2.31305,-4.89504 2.49465,-5.8849 2.50049,-13.62934 l 0.006,-8.35094 2.41101,-0.87383 c 1.32605,-0.4806 2.80692,-0.87383 3.29081,-0.87383 0.48391,0 2.81131,3.26793 5.17202,7.26206 6.42975,10.87863 10.15214,13.93529 16.97036,13.93529 5.23748,0 7.6429,-1.09822 16.08037,-7.34167 l 7.02548,-5.19862 6.79576,6.65001 c 13.48216,13.19301 20.55584,13.17773 32.75412,-0.0708 3.33618,-3.62339 6.44379,-6.59077 6.90581,-6.59417 0.46202,-0.003 2.29066,1.23549 4.06362,2.75308 l 3.22358,2.75926 -1.94029,7.08078 c -7.2097,26.3107 -19.81134,50.88611 -36.86078,71.88496 -7.6066,9.36863 -23.94968,25.12491 -33.58618,32.38026 -25.79467,19.42088 -55.02809,32.13798 -86.97002,37.83366 -12.69737,2.26412 -45.87002,2.89102 -58.78073,1.11085 z"
     id="path4576"
     inkscape:connector-curvature="0" />
  <path
     style="fill:#5fbcd3;stroke:#000000;stroke-width:6.43771267;stroke-linecap:round;stroke-linejoin:round;stroke-miterlimit:4;stroke-dasharray:none;paint-order:normal"
     d="m 188.38927,319.92318 c -12.27227,-0.56762 -21.28113,-1.93732 -32.84736,-4.99407 -4.03261,-1.06575 -7.48177,-1.93772 -7.66481,-1.93772 -0.18303,0 2.32148,-3.97214 5.56558,-8.82698 6.76375,-10.12203 7.27183,-12.3786 3.68976,-16.38764 -2.08655,-2.33526 -2.63092,-2.5075 -9.84963,-3.11657 -18.6381,-1.57257 -32.79319,-8.45694 -45.93547,-22.34085 -10.137308,-10.70937 -11.138236,-9.77965 10.52872,-9.77965 h 18.53756 l 2.29486,-2.29487 c 4.15241,-4.1524 2.42765,-11.63768 -2.99204,-12.98523 -5.03749,-1.25251 -18.32761,-6.93988 -24.15384,-10.33637 C 86.821327,215.99772 68.934274,198.68012 55.391078,178.34898 50.630583,171.2025 42.363099,156.64419 42.363099,155.40786 c 0,-2.02206 28.160292,-4.50173 43.572324,-3.83678 53.419367,2.30474 99.803017,23.77892 141.749487,65.62559 20.14892,20.10097 39.61247,45.75535 49.54903,65.30923 3.1833,6.26433 2.99014,12.65772 -0.55431,18.34656 -3.04379,4.88526 -7.62056,7.40501 -19.82968,10.91728 -23.90457,6.87676 -44.08927,9.28069 -68.46068,8.15344 z"
     id="path4578"
     inkscape:connector-curvature="0" />
  <path
     style="fill:#5fbcd3;stroke:#000000;stroke-width:6.43771267;stroke-linecap:round;stroke-linejoin:round;stroke-miterlimit:4;stroke-dasharray:none;paint-order:normal"
     d="m 363.04145,284.79741 c -12.29724,-12.72075 -18.80316,-13.28649 -32.55145,-2.83058 -3.67028,2.79134 -6.91165,5.0845 -7.20305,5.09593 -0.2914,0.0115 -2.30156,-3.07052 -4.46702,-6.84875 -4.19484,-7.319 -8.52821,-12.1404 -12.12992,-13.496 -3.49897,-1.31694 -9.52046,-0.97378 -14.30145,0.81502 -2.42088,0.90576 -4.48773,1.52402 -4.59299,1.3739 -0.10527,-0.15012 -1.90334,-3.09926 -3.99572,-6.55365 -9.41968,-15.55131 -25.13347,-35.92105 -37.97729,-49.22983 l -8.12146,-8.41546 1.68198,-2.36212 c 2.53471,-3.55967 9.10687,-17.728 11.31335,-24.38943 1.0727,-3.23848 2.52727,-8.71446 3.23238,-12.16885 0.70512,-3.45438 1.52693,-6.48734 1.82625,-6.7399 0.29933,-0.25256 5.4366,-0.88059 11.41617,-1.39562 34.36392,-2.95979 89.78536,-16.60384 117.48977,-28.92448 l 4.31798,-1.92028 3.82893,4.18095 c 7.31998,7.99294 16.86068,24.10821 14.69928,24.82867 -0.50698,0.169 -1.99852,1.21328 -3.31453,2.32064 l -2.39277,2.01338 -1.69994,-2.01548 c -3.15253,-3.73769 -9.18996,-7.60377 -14.37562,-9.20546 -16.46478,-5.08545 -33.33668,2.15254 -40.57145,17.40504 l -2.49403,5.25798 -34.15128,0.23763 -34.15129,0.23763 -3.49802,1.96272 c -4.74929,2.66478 -8.00298,7.45737 -8.48772,12.50212 -0.43225,4.49854 0.56059,6.33996 3.4183,6.33996 2.06283,0 3.01781,-1.41714 3.77122,-5.59627 0.66489,-3.68809 3.43479,-6.62259 7.25142,-7.68232 1.93292,-0.53671 14.40784,-0.84581 34.24762,-0.84859 l 31.2072,-0.004 v 2.99785 c 0,8.04755 5.69224,18.36039 13.03723,23.62002 9.89972,7.08903 23.95052,8.44807 34.36015,3.32343 11.12226,-5.47548 17.77213,-15.29629 18.39517,-27.16683 0.1826,-3.47891 -0.0307,-7.63901 -0.47408,-9.24466 -0.69492,-2.51678 -0.5675,-3.2734 0.92401,-5.48664 0.95155,-1.41201 2.0693,-2.56728 2.4839,-2.56728 0.4146,0 1.43776,2.47302 2.27368,5.49561 1.37512,4.97219 1.54965,8.89778 1.83253,41.21706 0.2035,23.25087 -0.003,39.13329 -0.59127,45.49449 -0.85427,9.23602 -3.6265,26.68295 -4.35567,27.41212 -0.18483,0.18483 -1.89796,-1.10366 -3.80695,-2.86331 -7.67402,-7.07366 -15.04867,-8.64866 -21.84541,-4.6655 -1.99171,1.16722 -6.25384,4.98317 -9.47139,8.47987 l -5.85009,6.35766 z"
     id="path4580"
     inkscape:connector-curvature="0" />
  <path
     style="fill:#ffffff;stroke-width:0.27757016;stroke-miterlimit:4;stroke-dasharray:none"
     d="m 372.20304,204.56631 c -2.52289,-0.3249 -5.94137,-1.37554 -8.46588,-2.60191 -6.62436,-3.21804 -11.48476,-8.92914 -13.46534,-15.82214 -0.77204,-2.68691 -1.04475,-7.89574 -0.55644,-10.62814 1.91883,-10.7371 10.43102,-18.96483 21.46145,-20.74423 2.8876,-0.46582 8.02643,-0.20816 10.87996,0.54551 1.2213,0.32257 3.34472,1.13458 4.71869,1.80447 7.23094,3.52551 12.38063,10.05583 13.89605,17.62156 0.35249,1.75982 0.43523,3.23322 0.33512,5.96776 -0.11581,3.16357 -0.25118,3.98342 -1.05154,6.36859 -1.01651,3.02934 -2.88923,6.35907 -4.90068,8.71349 -3.06584,3.58862 -8.65046,6.96698 -13.414,8.11468 -2.30908,0.55634 -7.4512,0.91615 -9.43739,0.66036 z m 5.52739,-13.86058 c 1.69813,-0.50429 3.64603,-2.15175 4.55793,-3.85493 0.56539,-1.05599 0.60114,-1.49413 0.60114,-7.36808 0,-5.87396 -0.0358,-6.31209 -0.60114,-7.36809 -1.31436,-2.45485 -4.26298,-4.28986 -6.89326,-4.28986 -2.66022,0 -5.60057,1.8778 -6.83663,4.36607 -0.63052,1.26927 -0.65776,1.57133 -0.65776,7.29188 0,5.69145 0.03,6.02865 0.64778,7.28309 1.22232,2.48195 4.03479,4.30298 6.72684,4.35552 0.54478,0.0106 1.64957,-0.17639 2.4551,-0.4156 z"
     id="path826"
     inkscape:connector-curvature="0" />
</svg>
